<svg width="138" height="22" viewBox="0 0 138 22" fill="none" xmlns="http://www.w3.org/2000/svg">
<path d="M5.68 20.472C5.44533 20.536 5.072 20.6 4.56 20.664C4.06933 20.728 3.57867 20.76 3.088 20.76C2.59733 20.76 2.16 20.7173 1.776 20.632C1.41333 20.568 1.104 20.44 0.848 20.248C0.592 20.056 0.4 19.7893 0.272 19.448C0.144 19.1067 0.0800002 18.6587 0.0800002 18.104V1.208C0.314667 1.16533 0.688 1.112 1.2 1.048C1.712 0.962665 2.20267 0.919998 2.672 0.919998C3.16267 0.919998 3.58933 0.962665 3.952 1.048C4.336 1.112 4.656 1.24 4.912 1.432C5.168 1.624 5.36 1.89066 5.488 2.232C5.616 2.57333 5.68 3.02133 5.68 3.576V20.472ZM26.598 19.928C26.2993 20.2267 25.862 20.4507 25.286 20.6C24.7313 20.7707 24.0593 20.856 23.27 20.856C22.4807 20.856 21.734 20.7387 21.03 20.504C20.326 20.2693 19.75 19.704 19.302 18.808L16.134 12.344C15.814 11.6827 15.526 11.064 15.27 10.488C15.014 9.89066 14.7367 9.208 14.438 8.44L14.246 8.472C14.3313 9.624 14.374 10.7973 14.374 11.992C14.3953 13.1867 14.406 14.36 14.406 15.512V20.472C14.1713 20.536 13.8087 20.6 13.318 20.664C12.8487 20.728 12.3793 20.76 11.91 20.76C11.4407 20.76 11.0247 20.728 10.662 20.664C10.2993 20.6 10.0007 20.472 9.766 20.28C9.53133 20.088 9.35 19.832 9.222 19.512C9.094 19.1707 9.03 18.7333 9.03 18.2V2.2C9.32867 1.77333 9.78733 1.45333 10.406 1.24C11.0247 1.02666 11.686 0.919998 12.39 0.919998C13.1793 0.919998 13.926 1.048 14.63 1.304C15.3553 1.53866 15.9313 2.09333 16.358 2.968L19.558 9.432C19.878 10.0933 20.166 10.7227 20.422 11.32C20.678 11.896 20.9553 12.568 21.254 13.336L21.414 13.304C21.3287 12.152 21.2753 11 21.254 9.848C21.2327 8.696 21.222 7.544 21.222 6.392V1.208C21.4567 1.144 21.8087 1.08 22.278 1.016C22.7687 0.951998 23.2487 0.919998 23.718 0.919998C24.6567 0.919998 25.3713 1.09066 25.862 1.432C26.3527 1.752 26.598 2.43466 26.598 3.48V19.928ZM35.4528 12.888C34.5141 12.568 33.6607 12.248 32.8927 11.928C32.1247 11.5867 31.4634 11.1813 30.9087 10.712C30.3541 10.2427 29.9167 9.688 29.5967 9.048C29.2981 8.38666 29.1487 7.58666 29.1487 6.648C29.1487 4.83466 29.8421 3.384 31.2287 2.296C32.6367 1.208 34.5994 0.663998 37.1167 0.663998C38.0341 0.663998 38.8874 0.727997 39.6768 0.855997C40.4661 0.983998 41.1381 1.18666 41.6927 1.464C42.2688 1.72 42.7168 2.06133 43.0368 2.488C43.3568 2.89333 43.5168 3.37333 43.5168 3.928C43.5168 4.48266 43.3888 4.96266 43.1328 5.368C42.8768 5.752 42.5674 6.08266 42.2048 6.36C41.7354 6.06133 41.1061 5.80533 40.3168 5.592C39.5274 5.35733 38.6634 5.24 37.7248 5.24C36.7648 5.24 36.0608 5.37866 35.6128 5.656C35.1648 5.912 34.9408 6.24266 34.9408 6.648C34.9408 6.968 35.0794 7.23466 35.3568 7.448C35.6341 7.64 36.0501 7.82133 36.6047 7.992L38.3007 8.536C40.3061 9.176 41.8421 9.99733 42.9088 11C43.9968 11.9813 44.5408 13.3253 44.5408 15.032C44.5408 16.8453 43.8261 18.3173 42.3968 19.448C40.9674 20.5573 38.8661 21.112 36.0927 21.112C35.1114 21.112 34.1941 21.0267 33.3407 20.856C32.5087 20.7067 31.7727 20.4827 31.1327 20.184C30.5141 19.864 30.0234 19.48 29.6607 19.032C29.3194 18.5627 29.1487 18.0293 29.1487 17.432C29.1487 16.8133 29.3301 16.2907 29.6927 15.864C30.0554 15.416 30.4501 15.0747 30.8767 14.84C31.4741 15.3093 32.1994 15.7147 33.0527 16.056C33.9274 16.3973 34.8767 16.568 35.9008 16.568C36.9461 16.568 37.6821 16.408 38.1088 16.088C38.5354 15.768 38.7487 15.3947 38.7487 14.968C38.7487 14.5413 38.5781 14.2213 38.2367 14.008C37.8954 13.7733 37.4154 13.5493 36.7968 13.336L35.4528 12.888ZM45.4715 5.688C45.3222 5.45333 45.1835 5.13333 45.0555 4.728C44.9275 4.32266 44.8635 3.896 44.8635 3.448C44.8635 2.616 45.0448 2.01866 45.4075 1.656C45.7915 1.29333 46.2822 1.112 46.8795 1.112H60.8315C60.9808 1.34666 61.1195 1.66666 61.2475 2.072C61.3755 2.47733 61.4395 2.904 61.4395 3.352C61.4395 4.184 61.2475 4.78133 60.8635 5.144C60.5008 5.50666 60.0208 5.688 59.4235 5.688H55.8715V20.472C55.6368 20.536 55.2635 20.6 54.7515 20.664C54.2608 20.728 53.7702 20.76 53.2795 20.76C52.7888 20.76 52.3515 20.7173 51.9675 20.632C51.6048 20.568 51.2955 20.44 51.0395 20.248C50.7835 20.056 50.5915 19.7893 50.4635 19.448C50.3355 19.1067 50.2715 18.6587 50.2715 18.104V5.688H45.4715ZM66.1955 1.784C66.5582 1.57066 67.1022 1.368 67.8275 1.176C68.5742 0.983997 69.3208 0.887997 70.0675 0.887997C71.1342 0.887997 72.0728 1.048 72.8835 1.368C73.7155 1.66666 74.2488 2.14666 74.4835 2.808C74.8675 3.91733 75.2835 5.208 75.7315 6.68C76.1795 8.152 76.6275 9.67733 77.0755 11.256C77.5235 12.8133 77.9608 14.36 78.3875 15.896C78.8142 17.4107 79.1875 18.7547 79.5075 19.928C79.2515 20.2267 78.8675 20.4613 78.3555 20.632C77.8435 20.824 77.2355 20.92 76.5315 20.92C76.0195 20.92 75.5822 20.8773 75.2195 20.792C74.8782 20.7067 74.5902 20.5787 74.3555 20.408C74.1422 20.2373 73.9608 20.0133 73.8115 19.736C73.6835 19.4587 73.5662 19.1387 73.4595 18.776L72.8835 16.568H67.0915C66.9208 17.208 66.7502 17.8693 66.5795 18.552C66.4088 19.2347 66.2382 19.896 66.0675 20.536C65.7688 20.6427 65.4488 20.728 65.1075 20.792C64.7875 20.8773 64.3928 20.92 63.9235 20.92C62.8355 20.92 62.0248 20.7387 61.4915 20.376C60.9795 19.992 60.7235 19.4693 60.7235 18.808C60.7235 18.5093 60.7662 18.2107 60.8515 17.912C60.9368 17.6133 61.0328 17.2613 61.1395 16.856C61.2888 16.28 61.4915 15.5653 61.7475 14.712C62.0248 13.8587 62.3235 12.9413 62.6435 11.96C62.9635 10.9573 63.3048 9.93333 63.6675 8.888C64.0302 7.84266 64.3715 6.86133 64.6915 5.944C65.0115 5.00533 65.2995 4.17333 65.5555 3.448C65.8328 2.72266 66.0462 2.168 66.1955 1.784ZM70.0355 5.912C69.7368 6.808 69.3955 7.81066 69.0115 8.92C68.6488 10.008 68.3182 11.1173 68.0195 12.248H71.9875C71.6888 11.096 71.3795 9.976 71.0595 8.888C70.7608 7.77866 70.4835 6.78666 70.2275 5.912H70.0355ZM86.898 14.328V20.472C86.6633 20.536 86.29 20.6 85.778 20.664C85.2873 20.728 84.7967 20.76 84.306 20.76C83.8153 20.76 83.378 20.7173 82.994 20.632C82.6313 20.568 82.322 20.44 82.066 20.248C81.8313 20.056 81.65 19.7893 81.522 19.448C81.394 19.1067 81.33 18.6587 81.33 18.104V3.032C81.33 2.584 81.4473 2.24266 81.682 2.008C81.938 1.752 82.2793 1.54933 82.706 1.4C83.4313 1.144 84.274 0.962664 85.234 0.855997C86.194 0.727997 87.218 0.663998 88.306 0.663998C91.25 0.663998 93.4687 1.28266 94.962 2.52C96.4553 3.75733 97.202 5.432 97.202 7.544C97.202 8.86666 96.8607 9.99733 96.178 10.936C95.4953 11.8747 94.6847 12.6 93.746 13.112C94.514 14.1573 95.2713 15.1387 96.018 16.056C96.7647 16.9733 97.3513 17.8053 97.778 18.552C97.5647 19.2987 97.17 19.8747 96.594 20.28C96.0393 20.664 95.41 20.856 94.706 20.856C94.2367 20.856 93.8313 20.8027 93.49 20.696C93.1487 20.5893 92.85 20.44 92.594 20.248C92.338 20.056 92.1033 19.8213 91.89 19.544C91.6767 19.2667 91.474 18.968 91.282 18.648L88.594 14.328H86.898ZM88.914 10.072C89.7247 10.072 90.3647 9.86933 90.834 9.464C91.3033 9.03733 91.538 8.41866 91.538 7.608C91.538 6.79733 91.2713 6.18933 90.738 5.784C90.226 5.35733 89.4047 5.144 88.274 5.144C87.954 5.144 87.698 5.15466 87.506 5.176C87.314 5.19733 87.1007 5.22933 86.866 5.272V10.072H88.914ZM104.408 1.784C104.771 1.57066 105.315 1.368 106.04 1.176C106.787 0.983997 107.533 0.887997 108.28 0.887997C109.347 0.887997 110.285 1.048 111.096 1.368C111.928 1.66666 112.461 2.14666 112.696 2.808C113.08 3.91733 113.496 5.208 113.944 6.68C114.392 8.152 114.84 9.67733 115.288 11.256C115.736 12.8133 116.173 14.36 116.6 15.896C117.027 17.4107 117.4 18.7547 117.72 19.928C117.464 20.2267 117.08 20.4613 116.568 20.632C116.056 20.824 115.448 20.92 114.744 20.92C114.232 20.92 113.795 20.8773 113.432 20.792C113.091 20.7067 112.803 20.5787 112.568 20.408C112.355 20.2373 112.173 20.0133 112.024 19.736C111.896 19.4587 111.779 19.1387 111.672 18.776L111.096 16.568H105.304C105.133 17.208 104.963 17.8693 104.792 18.552C104.621 19.2347 104.451 19.896 104.28 20.536C103.981 20.6427 103.661 20.728 103.32 20.792C103 20.8773 102.605 20.92 102.136 20.92C101.048 20.92 100.237 20.7387 99.704 20.376C99.192 19.992 98.936 19.4693 98.936 18.808C98.936 18.5093 98.9787 18.2107 99.064 17.912C99.1493 17.6133 99.2453 17.2613 99.352 16.856C99.5013 16.28 99.704 15.5653 99.96 14.712C100.237 13.8587 100.536 12.9413 100.856 11.96C101.176 10.9573 101.517 9.93333 101.88 8.888C102.243 7.84266 102.584 6.86133 102.904 5.944C103.224 5.00533 103.512 4.17333 103.768 3.448C104.045 2.72266 104.259 2.168 104.408 1.784ZM108.248 5.912C107.949 6.808 107.608 7.81066 107.224 8.92C106.861 10.008 106.531 11.1173 106.232 12.248H110.2C109.901 11.096 109.592 9.976 109.272 8.888C108.973 7.77866 108.696 6.78666 108.44 5.912H108.248ZM137.111 19.928C136.812 20.2267 136.375 20.4507 135.799 20.6C135.244 20.7707 134.572 20.856 133.783 20.856C132.993 20.856 132.247 20.7387 131.543 20.504C130.839 20.2693 130.263 19.704 129.815 18.808L126.647 12.344C126.327 11.6827 126.039 11.064 125.783 10.488C125.527 9.89066 125.249 9.208 124.951 8.44L124.759 8.472C124.844 9.624 124.887 10.7973 124.887 11.992C124.908 13.1867 124.919 14.36 124.919 15.512V20.472C124.684 20.536 124.321 20.6 123.831 20.664C123.361 20.728 122.892 20.76 122.423 20.76C121.953 20.76 121.537 20.728 121.175 20.664C120.812 20.6 120.513 20.472 120.279 20.28C120.044 20.088 119.863 19.832 119.735 19.512C119.607 19.1707 119.543 18.7333 119.543 18.2V2.2C119.841 1.77333 120.3 1.45333 120.919 1.24C121.537 1.02666 122.199 0.919998 122.903 0.919998C123.692 0.919998 124.439 1.048 125.143 1.304C125.868 1.53866 126.444 2.09333 126.871 2.968L130.071 9.432C130.391 10.0933 130.679 10.7227 130.935 11.32C131.191 11.896 131.468 12.568 131.767 13.336L131.927 13.304C131.841 12.152 131.788 11 131.767 9.848C131.745 8.696 131.735 7.544 131.735 6.392V1.208C131.969 1.144 132.321 1.08 132.791 1.016C133.281 0.951998 133.761 0.919998 134.231 0.919998C135.169 0.919998 135.884 1.09066 136.375 1.432C136.865 1.752 137.111 2.43466 137.111 3.48V19.928Z" fill="#007A87"/>
</svg>
