<svg width="64" height="64" viewBox="0 0 64 64" fill="none" xmlns="http://www.w3.org/2000/svg">
<path d="M32 59.1716C32 60.9534 34.1543 61.8457 35.4142 60.5858L46.8284 49.1716C47.5786 48.4214 48 47.404 48 46.3431V32L32 32V59.1716Z" fill="#007A87"/>
<path d="M59.1716 32C60.9534 32 61.8457 29.8457 60.5858 28.5858L49.1716 17.1716C48.4214 16.4214 47.404 16 46.3431 16L32 16V32H59.1716Z" fill="#009AAB"/>
<path d="M4.82843 32C3.04662 32 2.15428 34.1543 3.41421 35.4142L14.8284 46.8284C15.5786 47.5786 16.596 48 17.6569 48H32V32H4.82843Z" fill="#009AAB"/>
<path d="M32 4.82843C32 3.04662 29.8457 2.15428 28.5857 3.41421L17.1715 14.8284C16.4214 15.5786 16 16.596 16 17.6569V32H32V4.82843Z" fill="#007A87"/>
<path fill-rule="evenodd" clip-rule="evenodd" d="M32.2425 23.9671C32.1793 23.7146 31.8205 23.7146 31.7574 23.9671L30.492 29.0286C30.4577 29.1658 30.3166 29.2472 30.1807 29.2083L25.1648 27.7735C24.9146 27.7019 24.7352 28.0127 24.9223 28.1936L28.6729 31.8201C28.7745 31.9183 28.7745 32.0813 28.6729 32.1795L24.9219 35.8064C24.7348 35.9873 24.9142 36.2981 25.1644 36.2265L30.1807 34.7915C30.3166 34.7527 30.4577 34.8341 30.492 34.9713L31.7574 40.0329C31.8205 40.2854 32.1793 40.2854 32.2425 40.0329L33.5079 34.9712C33.5422 34.834 33.6833 34.7526 33.8192 34.7914L38.8357 36.2265C39.0859 36.2981 39.2653 35.9873 39.0782 35.8064L35.3272 32.1795C35.2256 32.0813 35.2256 31.9183 35.3272 31.8201L39.0778 28.1936C39.2649 28.0127 39.0855 27.7019 38.8353 27.7735L33.8192 29.2084C33.6832 29.2473 33.5421 29.1658 33.5079 29.0287L32.2425 23.9671Z" fill="white"/>
</svg>
